<svg width="800" height="200" viewBox="0 0 800 200" xmlns="http://www.w3.org/2000/svg">
  <!-- Padding around shape for metallic effect -->
  <rect width="800" height="200" fill="white"/>
  
  <g transform="translate(50, 50)">
    <!-- E -->
    <rect x="0" y="0" width="80" height="20" fill="black"/>
    <rect x="0" y="0" width="20" height="100" fill="black"/>
    <rect x="0" y="40" width="60" height="20" fill="black"/>
    <rect x="0" y="80" width="80" height="20" fill="black"/>
    
    <!-- B -->
    <path d="M 110 0 L 110 100 L 160 100 C 180 100 190 90 190 70 C 190 60 185 52 175 48 C 183 44 188 36 188 26 C 188 10 178 0 160 0 Z M 130 20 L 155 20 C 165 20 168 24 168 30 C 168 36 165 40 155 40 L 130 40 Z M 130 60 L 158 60 C 168 60 170 64 170 70 C 170 76 168 80 158 80 L 130 80 Z" fill="black"/>
    
    <!-- U -->
    <path d="M 220 0 L 220 70 C 220 90 230 100 250 100 C 270 100 280 90 280 70 L 280 0 L 300 0 L 300 70 C 300 100 280 120 250 120 C 220 120 200 100 200 70 L 200 0 Z" fill="black"/>
    
    <!-- S -->
    <path d="M 330 30 C 330 15 345 0 370 0 C 390 0 405 10 408 25 L 388 30 C 386 22 380 18 370 18 C 357 18 350 24 350 30 C 350 36 355 40 365 42 L 385 46 C 402 49 415 58 415 75 C 415 92 400 105 375 105 C 352 105 337 95 333 78 L 353 74 C 356 84 363 87 375 87 C 387 87 395 82 395 75 C 395 69 390 65 380 63 L 360 59 C 343 56 330 47 330 30 Z" fill="black"/>
    
    <!-- T -->
    <rect x="440" y="0" width="80" height="20" fill="black"/>
    <rect x="470" y="0" width="20" height="100" fill="black"/>
    
    <!-- E -->
    <rect x="550" y="0" width="80" height="20" fill="black"/>
    <rect x="550" y="0" width="20" height="100" fill="black"/>
    <rect x="550" y="40" width="60" height="20" fill="black"/>
    <rect x="550" y="80" width="80" height="20" fill="black"/>
    
    <!-- R -->
    <path d="M 660 0 L 660 100 L 680 100 L 680 60 L 700 60 L 720 100 L 742 100 L 720 58 C 732 54 740 44 740 28 C 740 10 728 0 710 0 Z M 680 20 L 708 20 C 718 20 720 24 720 30 C 720 36 718 40 708 40 L 680 40 Z" fill="black"/>
  </g>
</svg>
